<?xml version="1.0" encoding="utf-8"?>
<!-- Generator: Adobe Illustrator 26.0.0, SVG Export Plug-In . SVG Version: 6.00 Build 0)  -->
<svg version="1.1" id="Camada_1" xmlns="http://www.w3.org/2000/svg" xmlns:xlink="http://www.w3.org/1999/xlink" x="0px" y="0px"
	 viewBox="0 0 595.28 841.89" style="enable-background:new 0 0 595.28 841.89;" xml:space="preserve">
<style type="text/css">
	.st0{fill:#FFFFFF;}
	.st1{fill:#020203;}
	.st2{fill:#010202;}
	.st3{fill:#FFFFFF;stroke:#FFFFFF;stroke-miterlimit:10;}
	.st4{fill:#1E1E1C;stroke:#1E1E1C;stroke-miterlimit:10;}
	.st5{fill:none;}
	.st6{fill:#020203;stroke:#FFFFFF;stroke-width:6;stroke-miterlimit:10;}
</style>
<path class="st0" d="M-59.12,234"/>
<g>
	<path class="st1" d="M444.16,229.34c-0.46-0.83-0.87-1.51-1.16-1.98c-1.87-1.93-3.74-3.86-5.61-5.79
		c-0.26-0.44-0.52-0.87-0.78-1.31c-0.58-0.65-1.15-1.31-1.73-1.96c-0.25-0.45-2.19-3.73-6.13-4.38c-3.26-0.54-6.61,0.93-8.61,3.76
		c-2.13,2.11-4.26,4.22-6.39,6.33c-2.31,1.44-4.61,2.88-6.92,4.31c-1.33,0.9-3.09,1.89-5.28,2.64c-4.83,1.64-9.1,1.21-11.43,0.79
		c-1.75,0.34-4.2,0.72-7.14,0.85c-4.5,0.19-9.24,0.39-14.59-1.75c-1.45-0.58-7.49-3.15-11.79-9.22c-2.23-3.15-1.54-3.77-4.9-9.46
		c-2.64-4.46-3.2-4.3-6.07-8.99c-3.48-5.69-5.23-10.14-5.6-11.09c-0.34-0.89-1.59-4.18-2.8-9.46c-0.89-3.9-2.41-10.44-2.33-18.68
		c0.02-2.62,0.27-13.91,5.6-27.55c0,0,5.32-13.55,12.14-19.61c2.24-1.99,4.79-3.74,4.79-3.74c0.68-0.46,1.25-0.83,1.62-1.07
		c0.27-0.29,0.55-0.59,0.83-0.92c0.68-0.8,1.26-1.59,1.75-2.33c1.05-0.86,2.1-1.71,3.15-2.57c1.91-1.6,3.83-3.19,5.74-4.79
		c0.68-0.78,1.74-1.96,3.13-3.27c3.08-2.89,8.66-7.09,20.55-11.21c7.33-2.54,7.7-1.29,16.34-4.2c9.59-3.23,9.27-4.81,16.81-7
		c2.58-0.75,8.6-1.44,20.55-2.8c8.98-1.02,12.15-1.27,15.88-1.4c7.56-0.26,11.41-0.36,14.94,0.93c5.01,1.83,8.06,5.04,12.61,9.81
		c6.19,6.5,5.32,8.1,10.27,12.14c5.06,4.13,10.65,6.27,12.61,7c6.41,2.4,8.8,1.74,12.14,4.67c2.6,2.28,3.68,4.9,5.14,8.41
		c2.21,5.34,1.6,7.27,3.5,14.24c0.89,3.27,2,6.03,4.2,11.56c2.46,6.16,4.73,11.01,6.3,14.36c2.88,6.12,3.56,7.08,5.25,11.21
		c1.21,2.95,2.68,6.47,3.5,9.81c0.59,2.42,1.18,6.05,0.8,10.74c0.14,1.67,0.28,3.35,0.42,5.02c-0.03,2.43,0.04,4.42,0.1,5.78
		c0.23,4.81,0.71,7.46,0.42,12.03c-0.06,0.95-0.14,1.73-0.19,2.23c0,4.92,0.08,6.86,0.19,7.48c0.01,0.04,0.1,0.59,0.22,1.33
		c0.04,0.27,0.09,0.58,0.14,0.93c1.02,6.91,1.98,11.24,1.05,15.76c-0.68,3.3-2.33,8.15-3.5,11.21c-0.94,2.45-1.69,4.98-2.8,7.35
		c-1.03,2.2-1.51,2.84-1.4,3.85c0.1,0.89,0.6,1.58,1.17,2.2c2.45,2.68,6.26,3.36,6.54,3.41c5.56,1.01,18.22,9.48,25.92,19.96
		c6.92,9.42,6.64,20.87,6.65,24.87c0.01,2.24,0.02,7.84-1.84,14.1c-0.63,2.11-1.01,2.76-2.01,6.22c0,0-1.63,5.61-2.63,7.79
		c-0.07,0.16-0.39,0.84-0.79,1.66c-0.38,0.79-0.52,1.04-0.61,1.23c-0.34,0.64-0.45,0.76-0.7,1.23c-0.43,0.8-0.65,1.44-0.7,1.58
		c-0.32,0.83-2.48,4.16-8.78,12.95c-0.1,0.13-0.25,0.35-0.44,0.62c-0.36,0.51-0.6,0.86-0.63,0.91c-0.26,0.38-0.96,0.96-2.89,1.83
		c-0.04,0.05-0.23,0.28-0.57,0.32c-0.24,0.03-0.42-0.06-0.49-0.1c-0.16-0.03-0.32-0.07-0.47-0.1c-0.03,0-0.24,0.02-0.32-0.09
		c-0.03-0.05-0.03-0.1-0.01-0.23c0.02-0.11,0.05-0.27,0.1-0.45c0.03-0.12,0.06-0.23,0.09-0.35c0.05-0.32,0.11-0.65,0.16-0.97
		c0.08-0.57,0.16-1.14,0.24-1.71c0.04-0.33,0.07-0.66,0.11-0.99c0.02-0.28,0.03-0.56,0.05-0.83c0-0.41-0.01-0.82-0.01-1.24
		c0-0.49-0.01-0.98-0.01-1.47c-0.03-0.22-0.06-0.43-0.09-0.66c-0.09-0.72-0.15-1.41-0.18-2.08c-0.08-0.43-0.17-0.86-0.26-1.29
		c-0.14-0.65-0.28-1.29-0.42-1.92c-0.29-0.84-0.59-1.68-0.88-2.53c-0.58-1.68-0.97-2.62-1.54-3.73c-0.13-0.25-0.82-1.31-2.19-3.41
		c-1.14-1.75-1.57-2.4-2.29-3.29c-0.45-0.56-0.9-1.06-1.43-1.62c-2.5-2.62-8.39-8.06-8.96-8.58c-2.07-0.52-4.29-1.01-6.63-1.44
		c-2.95-0.54-5.75-0.92-8.36-1.18c0,0-0.06-0.01-3.85-0.7c-1.32,1.55-3.28,4.04-5.25,7.35c-4.1,6.9-3.89,10.1-7.7,15.76
		c-1.04,1.55-3.26,3.83-7.7,8.41c-6.24,6.42-7.32,6.81-11.91,11.91c-3.52,3.91-6.23,7.4-7,8.41c-3.1,4.02-3.12,4.5-4.9,6.65
		c-2.15,2.61-3.47,3.54-10.86,9.46c-4.09,3.27-8.18,6.52-12.26,9.81c-3.77,3.04-6.07,4.92-9.81,7c-1.98,1.11-3.61,2.01-5.95,2.8
		c-1.09,0.37-3.35,1.05-12.96,1.4c-7.15,0.26-4.19-0.18-11.56,0c-2.95,0.07-4.6,0.17-6.65-0.7c-1.24-0.52-3-1.56-5.25-4.55
		c-2.14-2.84-2.88-5-5.25-11.56c-3.52-9.71-3.92-10.52-4.2-12.96c-0.48-4.05,0.03-7.36,0.35-9.46c0.62-4.1,1.73-7.44,2.69-9.8
		c0.85-2.59,1.71-5.18,2.56-7.77c0.73-1.67,1.56-3.59,2.45-5.72c1.8-4.28,1.93-4.81,2.86-6.71c1.26-2.59,1.62-2.89,2.86-5.54
		c1.02-2.19,1.24-3.14,1.98-4.73c3.97-8.51,10.51-17.86,10.51-17.86c3.79-5.68,6.36-8.88,11.91-14.71c0.12-0.13,0.37-0.39,0.69-0.72
		c1.31-3.01,2.62-6.02,3.92-9.03c0.39-1.34,0.78-2.68,1.17-4.03c1.57-3.41,3.46-8.24,4.73-14.24c0.94-4.43,2.37-11.53,1.05-20.66
		C449.58,242.93,448.02,236.28,444.16,229.34z"/>
	<path class="st1" d="M149.63,229.34c0.46-0.83,0.87-1.51,1.16-1.98c1.87-1.93,3.74-3.86,5.61-5.79c0.26-0.44,0.52-0.87,0.78-1.31
		c0.58-0.65,1.15-1.31,1.73-1.96c0.25-0.45,2.19-3.73,6.13-4.38c3.26-0.54,6.61,0.93,8.61,3.76c2.13,2.11,4.26,4.22,6.39,6.33
		c2.31,1.44,4.61,2.88,6.92,4.31c1.33,0.9,3.09,1.89,5.28,2.64c4.83,1.64,9.1,1.21,11.43,0.79c1.75,0.34,4.2,0.72,7.14,0.85
		c4.5,0.19,9.24,0.39,14.59-1.75c1.45-0.58,7.49-3.15,11.79-9.22c2.23-3.15,1.54-3.77,4.9-9.46c2.64-4.46,3.2-4.3,6.07-8.99
		c3.48-5.69,5.23-10.14,5.6-11.09c0.34-0.89,1.59-4.18,2.8-9.46c0.89-3.9,2.41-10.44,2.33-18.68c-0.02-2.62-0.27-13.91-5.6-27.55
		c0,0-5.32-13.55-12.14-19.61c-2.24-1.99-4.79-3.74-4.79-3.74c-0.68-0.46-1.25-0.83-1.62-1.07c-0.27-0.29-0.55-0.59-0.83-0.92
		c-0.68-0.8-1.26-1.59-1.75-2.33c-1.05-0.86-2.1-1.71-3.15-2.57c-1.91-1.6-3.83-3.19-5.74-4.79c-0.68-0.78-1.74-1.96-3.13-3.27
		c-3.08-2.89-8.66-7.09-20.55-11.21c-7.33-2.54-7.7-1.29-16.34-4.2c-9.59-3.23-9.27-4.81-16.81-7c-2.58-0.75-8.6-1.44-20.55-2.8
		c-8.98-1.02-12.15-1.27-15.88-1.4c-7.56-0.26-11.41-0.36-14.94,0.93c-5.01,1.83-8.06,5.04-12.61,9.81
		c-6.19,6.5-5.32,8.1-10.27,12.14c-5.06,4.13-10.65,6.27-12.61,7c-6.41,2.4-8.8,1.74-12.14,4.67c-2.6,2.28-3.68,4.9-5.14,8.41
		c-2.21,5.34-1.6,7.27-3.5,14.24c-0.89,3.27-2,6.03-4.2,11.56c-2.46,6.16-4.73,11.01-6.3,14.36c-2.88,6.12-3.56,7.08-5.25,11.21
		c-1.21,2.95-2.68,6.47-3.5,9.81c-0.59,2.42-1.18,6.05-0.8,10.74c-0.14,1.67-0.28,3.35-0.42,5.02c0.03,2.43-0.04,4.42-0.1,5.78
		c-0.23,4.81-0.71,7.46-0.42,12.03c0.06,0.95,0.14,1.73,0.19,2.23c0,4.92-0.08,6.86-0.19,7.48c-0.01,0.04-0.1,0.59-0.22,1.33
		c-0.04,0.27-0.09,0.58-0.14,0.93c-1.02,6.91-1.98,11.24-1.05,15.76c0.68,3.3,2.33,8.15,3.5,11.21c0.94,2.45,1.69,4.98,2.8,7.35
		c1.03,2.2,1.51,2.84,1.4,3.85c-0.1,0.89-0.6,1.58-1.17,2.2c-2.45,2.68-6.26,3.36-6.54,3.41c-5.56,1.01-18.22,9.48-25.92,19.96
		c-6.92,9.42-6.64,20.87-6.65,24.87c-0.01,2.24-0.02,7.84,1.84,14.1c0.63,2.11,1.01,2.76,2.01,6.22c0,0,1.63,5.61,2.63,7.79
		c0.07,0.16,0.39,0.84,0.79,1.66c0.38,0.79,0.52,1.04,0.61,1.23c0.34,0.64,0.45,0.76,0.7,1.23c0.43,0.8,0.65,1.44,0.7,1.58
		c0.32,0.83,2.48,4.16,8.78,12.95c0.1,0.13,0.25,0.35,0.44,0.62c0.36,0.51,0.6,0.86,0.63,0.91c0.26,0.38,0.96,0.96,2.89,1.83
		c0.04,0.05,0.23,0.28,0.57,0.32c0.24,0.03,0.42-0.06,0.49-0.1c0.16-0.03,0.32-0.07,0.47-0.1c0.03,0,0.24,0.02,0.32-0.09
		c0.03-0.05,0.03-0.1,0.01-0.23c-0.02-0.11-0.05-0.27-0.1-0.45c-0.03-0.12-0.06-0.23-0.09-0.35c-0.05-0.32-0.11-0.65-0.16-0.97
		c-0.08-0.57-0.16-1.14-0.24-1.71c-0.04-0.33-0.07-0.66-0.11-0.99c-0.02-0.28-0.03-0.56-0.05-0.83c0-0.41,0.01-0.82,0.01-1.24
		c0-0.49,0.01-0.98,0.01-1.47c0.03-0.22,0.06-0.43,0.09-0.66c0.09-0.72,0.15-1.41,0.18-2.08c0.08-0.43,0.17-0.86,0.26-1.29
		c0.14-0.65,0.28-1.29,0.42-1.92c0.29-0.84,0.59-1.68,0.88-2.53c0.58-1.68,0.97-2.62,1.54-3.73c0.13-0.25,0.82-1.31,2.19-3.41
		c1.14-1.75,1.57-2.4,2.29-3.29c0.45-0.56,0.9-1.06,1.43-1.62c2.5-2.62,8.39-8.06,8.96-8.58c2.07-0.52,4.29-1.01,6.63-1.44
		c2.95-0.54,5.75-0.92,8.36-1.18c0,0,0.06-0.01,3.85-0.7c1.32,1.55,3.28,4.04,5.25,7.35c4.1,6.9,3.89,10.1,7.7,15.76
		c1.04,1.55,3.26,3.83,7.7,8.41c6.24,6.42,7.32,6.81,11.91,11.91c3.52,3.91,6.23,7.4,7,8.41c3.1,4.02,3.12,4.5,4.9,6.65
		c2.15,2.61,3.47,3.54,10.86,9.46c4.09,3.27,8.18,6.52,12.26,9.81c3.77,3.04,6.07,4.92,9.81,7c1.98,1.11,3.61,2.01,5.95,2.8
		c1.09,0.37,3.35,1.05,12.96,1.4c7.15,0.26,4.19-0.18,11.56,0c2.95,0.07,4.6,0.17,6.65-0.7c1.24-0.52,3-1.56,5.25-4.55
		c2.14-2.84,2.88-5,5.25-11.56c3.52-9.71,3.92-10.52,4.2-12.96c0.48-4.05-0.03-7.36-0.35-9.46c-0.62-4.1-1.73-7.44-2.69-9.8
		c-0.85-2.59-1.71-5.18-2.56-7.77c-0.73-1.67-1.56-3.59-2.45-5.72c-1.8-4.28-1.93-4.81-2.86-6.71c-1.26-2.59-1.62-2.89-2.86-5.54
		c-1.02-2.19-1.24-3.14-1.98-4.73c-3.97-8.51-10.51-17.86-10.51-17.86c-3.79-5.68-6.36-8.88-11.91-14.71
		c-0.12-0.13-0.37-0.39-0.69-0.72c-1.31-3.01-2.62-6.02-3.92-9.03c-0.39-1.34-0.78-2.68-1.17-4.03c-1.57-3.41-3.46-8.24-4.73-14.24
		c-0.94-4.43-2.37-11.53-1.05-20.66C144.21,242.93,145.78,236.28,149.63,229.34z"/>
	<path class="st1" d="M304.59,190.55c2.29-56.39-5.12-81.22,8.1-87.45c6.31-2.98,15.78-0.99,31.75,2.36
		c6.97,1.46,12.17,3.18,16.88,4.75c7.61,2.54,18.07,6.54,29.99,12.8c4.45,1.92,10.78,5.2,17.02,10.66
		c6.88,6.03,10.81,12.22,12.97,16.35c27.91,64.32,28.9,82.17,23.5,85.32c-0.91,0.53-4.49,2.09-7.29,5.69
		c-1.9,2.45-2.56,4.69-4.05,12.8c-1.08,5.82-1.53,8.95-2.43,14.22c-1.13,6.6-1.69,9.91-2.43,12.8c-0.54,2.13-2,7.52-4.86,14.22
		c-1.86,4.36-2.92,5.99-7.29,14.22c0,0-4.01,7.53-8.1,15.64c-5.84,11.57-9.72,20.79-10.54,22.75c-4.13,9.89-3.09,9.04-10.54,29.15
		c-4.53,12.23-5.43,13.95-8.1,22.04c-2.06,6.23-3.72,11.86-5.67,18.49c-2.74,9.29-3.27,11.65-5.67,19.2
		c-1.08,3.39-1.57,4.8-2.43,7.82c-0.46,1.63-1.78,6.36-3.24,13.51c-1.83,8.91-1.19,8.44-2.43,12.8c-1.89,6.64-4.3,11.07-4.86,12.09
		c-1.21,2.18-1.5,2.33-6.48,9.24c-6.87,9.54-7.88,11.43-11.35,14.93c-2.18,2.2-4.11,4.15-6.48,5.69c-4.75,3.08-21.7,4.45-27.55,2.84
		c-34.33-9.41-5.64-201.5,0-299.33C303.46,207.61,304.24,199.09,304.59,190.55z"/>
	<path class="st1" d="M311.43,174.81c5.53-28.07,4.18-52.9,1.26-71.71c-12.4-0.18-23.16-0.13-31.84,0
		c-17.17,0.25-23.63,0.71-31.38,2.36c-6.89,1.46-12.03,3.18-16.69,4.75c-7.52,2.54-17.86,6.54-29.64,12.8
		c-4.4,1.92-10.66,5.2-16.82,10.66c-6.8,6.03-10.68,12.22-12.82,16.35c-27.59,64.32-28.57,82.17-23.23,85.32
		c0.9,0.53,4.44,2.09,7.21,5.69c1.88,2.45,2.53,4.69,4.01,12.8c1.06,5.82,1.51,8.95,2.4,14.22c1.12,6.6,1.67,9.91,2.4,12.8
		c0.54,2.13,1.98,7.52,4.81,14.22c1.84,4.36,2.88,5.99,7.21,14.22c0,0,3.96,7.53,8.01,15.64c5.78,11.57,9.61,20.79,10.41,22.75
		c4.08,9.89,3.05,9.04,10.41,29.15c4.48,12.23,5.37,13.95,8.01,22.04c2.04,6.23,3.68,11.86,5.61,18.49
		c2.71,9.29,3.23,11.65,5.61,19.2c1.07,3.39,1.56,4.8,2.4,7.82c0.46,1.63,1.76,6.36,3.2,13.51c1.81,8.91,1.18,8.44,2.4,12.8
		c1.86,6.64,4.25,11.07,4.81,12.09c1.2,2.18,1.48,2.33,6.41,9.24c6.8,9.54,7.79,11.43,11.22,14.93c2.15,2.2,4.07,4.15,6.41,5.69
		c4.7,3.08,21.6,4.26,27.24,2.84c28.52-7.17,37.89-143.03,17-301.97c-0.85-6.5-1.6-11.85-2.1-15.35
		C307.68,191.03,309.77,183.24,311.43,174.81z"/>
	<path class="st0" d="M199.21,249.62c2.56-2.33,8.79-1.34,15.79-0.23c3.68,0.58,10.88,1.78,18.78,5.82
		c5.54,2.83,9.01,5.83,11.64,8.11c1.6,1.39,4.46,3.88,7.21,7.45c0.9,1.16,1.33,1.86,5.77,9.95c1.57,2.86,2.92,5.75,4.61,8.59
		c2.8,4.71,4.43,6.59,3.37,7.47c-0.68,0.57-1.83,0.19-7.2-0.35c-2.76-0.28-5.51-0.42-8.27-0.64c-9.03-0.73-8.2-0.59-9.77-0.78
		c-2.73-0.33-5.49-0.85-11-1.9c-5.2-0.99-7.83-1.49-9.08-1.91c-5.34-1.8-8.82-4.53-10.67-6.01c-1.27-1.02-5.38-4.45-7.83-9.45
		c-1.02-2.08-1.43-4.3-2.26-8.75c-0.42-2.24-0.63-4.07-1.03-7.63C198.32,250.75,198.65,250.13,199.21,249.62z"/>
	<path class="st0" d="M392.94,249.62c-2.56-2.33-8.79-1.34-15.79-0.23c-3.68,0.58-10.88,1.78-18.78,5.82
		c-5.54,2.83-9.01,5.83-11.64,8.11c-1.6,1.39-4.46,3.88-7.21,7.45c-0.9,1.16-1.33,1.86-5.77,9.95c-1.57,2.86-2.92,5.75-4.61,8.59
		c-2.8,4.71-4.43,6.59-3.37,7.47c0.68,0.57,1.83,0.19,7.2-0.35c2.76-0.28,5.51-0.42,8.27-0.64c9.03-0.73,8.2-0.59,9.77-0.78
		c2.73-0.33,5.49-0.85,11-1.9c5.2-0.99,7.83-1.49,9.08-1.91c5.34-1.8,8.82-4.53,10.67-6.01c1.27-1.02,5.38-4.45,7.83-9.45
		c1.02-2.08,1.43-4.3,2.26-8.75c0.42-2.24,0.63-4.07,1.03-7.63C393.83,250.75,393.49,250.13,392.94,249.62z"/>
	<path class="st2" d="M240.64,168.65c-10.6-6.36-28.85,7.59-41.59,17.33c-14.6,11.16-32.98,25.21-29.46,37.26
		c3.03,10.38,20.53,13.25,24.26,13.86c14.99,2.46,32.17-2.66,43.34-15.47c1.35-1.55,13.36-15.74,11.16-34.79
		C247.66,180.92,246.66,172.27,240.64,168.65z"/>
	<path class="st2" d="M353.25,166.4c10.6-6.36,28.85,7.59,41.59,17.33c14.6,11.16,32.98,25.21,29.46,37.26
		c-3.03,10.38-20.53,13.25-24.26,13.86c-14.99,2.46-32.17-2.66-43.34-15.47c-1.35-1.55-13.36-15.74-11.16-34.79
		C346.22,178.67,347.22,170.02,353.25,166.4z"/>
	<g>
		<polygon class="st3" points="279.38,165.8 314.81,165.8 314.81,171.45 327.99,180.12 298.23,279.98 267.33,180.12 279.38,172.96 
					"/>
		<polygon class="st4" points="291.07,192.18 304.63,192.18 308.4,199.34 298.23,265.28 286.54,201.22 		"/>
		<path class="st3" d="M280.51,154.12c11.76-0.03,23.52-0.06,35.28-0.09c-0.42-1.08-0.85-2.17-1.27-3.25
			c-0.53-0.89-1.07-1.79-1.6-2.68c-1.88-1.57-4.21-3.29-7.02-4.95c-2.79-1.64-5.41-2.84-7.68-3.72c-2.49,1.05-5.19,2.36-8.01,4
			c-1.52,0.89-2.93,1.79-4.24,2.68c-0.92,1.07-1.87,2.29-2.83,3.67C282.1,151.31,281.23,152.77,280.51,154.12z"/>
	</g>
	<path class="st0" d="M249.52,410.95c0.23-2.7,7.35-4.08,9.29-4.46c2.38-0.46,5.44-1.02,9.07,0c2.95,0.83,5.37,2.45,6.35,3.1
		c1.02,0.68,1.85,1.34,2.34,1.74c1.78,1.42,3.14,2.76,4.07,3.75c0.23,0.15,0.61,0.39,1.06,0.67c3.84,2.38,6.19,3.84,8.95,4.65
		c3.27,0.95,3.67-0.02,5.02,0.91c2.07,1.42,2.1,4.37,2.19,10.12c0.26,16.02,0.46,17.06,0,21.01c-0.33,2.77-0.66,4.26-0.91,7.86
		c-0.34,4.97-0.25,4.45-0.59,5.82c-0.47,1.9-1.14,4.58-3.16,6.15c-1.35,1.05-2.45,0.94-6.96,1.18c-8.41,0.44-9.06,1.05-14.21,0.79
		c-3.05-0.16-5.11-0.49-5.76-0.6c-2.33-0.39-4.02-0.87-6.56-1.59c-2.68-0.76-2.69-0.87-7.15-2.19c-1.42-0.42-2.34-0.68-4.17-1.19
		c-2.78-0.78-4.18-1.17-4.57-1.19c-3.61-0.18-5.96,2.26-6.56,1.59c-0.41-0.45,0.37-1.92,1.19-2.98c2.12-2.72,6.23-4.8,10.53-4.37
		c4.83,0.48,5.56,3.7,11.13,5.56c4.01,1.34,7.75,1.06,10.33,0.6c2.58-0.63,4.87-0.89,6.76-0.99c3.44-0.18,4.55,0.25,6.36-0.6
		c2.68-1.26,3.99-3.98,4.37-4.77c0.82-1.69,0.9-3.01,2.6-6.96c0.11-0.26,0.21-0.48,0.27-0.61c0.05-2.04-0.14-5.16-1.55-8.53
		c-1.19-2.83-2.8-4.62-5.97-8.08c-4.61-5.04-8.79-8.25-10.28-9.37c-1.46-1.09-3.69-2.54-8.16-5.44c-1.22-0.79-4.9-3.17-9.07-6.04
		C250.06,412.51,249.45,411.79,249.52,410.95z"/>
	<path class="st1" d="M232.29,473.85c-0.44,0.74-0.21,0.95-0.6,2.32c-0.79,2.77-2.31,3.76-5.17,7.22c-1.24,1.51-2.3,2.9-4.24,5.83
		c-1.75,2.64-2.66,4.08-3.44,5.83c-0.92,2.05-1.2,3.3-1.29,3.78c-0.16,0.8-0.42,2.44-0.23,4.5c0.08,0.84,0.25,2.5,1.07,4.4
		c0.68,1.57,1.03,1.53,1.85,3.25c0.19,0.39,0.46,1.01,1.07,1.56c0.27,0.24,0.38,0.27,0.68,0.56c0.71,0.69,0.82,1.23,0.99,1.19
		c0.23-0.04,0.17-0.97,0.26-2.45c0.08-1.31,0.16-1.12,0.27-2.62c0.15-1.96,0.06-2.92,0.33-2.98c0.13-0.03,0.23,0.18,0.66,0.79
		c0.48,0.67,0.89,1.15,1.72,2.12c0.19,0.22,0.49,0.56,0.86,0.96c0.07,0.38,0.23,0.68,0.4,0.7c0.19,0.01,0.45-0.36,0.53-0.96
		c0.17-0.32,0.33-0.64,0.5-0.96c0.37-0.71,0.73-1.44,1.1-2.18c0.5-1.02,0.98-2.03,1.44-3.03c0.37-0.68,0.73-1.36,1.1-2.04
		c0.17-0.34,0.33-0.68,0.5-1.03c0.2-0.5,0.32-0.74,0.36-0.73c0.04,0.01,0.01,0.27-0.1,0.76c-0.04,1.34-0.08,2.67-0.12,4.01
		c-0.06,1.03-0.05,2.18,0.09,3.44c0.05,0.45,0.11,0.88,0.19,1.29c0.2,1.44,0.41,2.88,0.61,4.33c0.23,1.03,0.46,2.05,0.7,3.08
		c0.21,0.85,0.45,1.73,0.74,2.64c0.67,2.12,1.46,4.01,2.27,5.66c0.24,0.51,0.61,1.23,1.13,2.05c0.65,1.02,1.81,2.63,2.09,2.48
		c0.07-0.04,0.11-0.21-0.07-0.83c0.02-0.26,0.04-0.53,0.07-0.79c0-0.57,0-1.15,0-1.72c0.53,0.81,0.98,1.45,1.29,1.89
		c0.56,0.78,0.86,1.16,1.19,1.81c0.29,0.57,0.46,1.07,0.56,1.4c0.01,0.39,0.03,0.8,0.07,1.22c0.13,1.21,0.39,2.27,0.69,3.15
		c0.36,0.95,0.72,1.89,1.08,2.84c0.63,1.13,1.26,2.27,1.89,3.4c0.79,1.14,1.58,2.28,2.37,3.42c0.98,1.31,1.96,2.62,2.95,3.93
		c0.68,0.97,1.37,1.94,2.05,2.91c0.19,0.36,0.37,0.73,0.56,1.09c0.36,0.75,0.73,1.49,1.09,2.24c0.6,1.57,1.21,3.15,1.81,4.72
		c0.09,0.22,0.18,0.43,0.27,0.65c0.03,0.32,0.08,0.49,0.15,0.5c0.19,0.02,0.52-1.21,0.99-3.7c0.05-0.88,0.1-1.76,0.15-2.63
		c-0.06-1.03-0.12-2.07-0.17-3.1c-0.2-1.36-0.4-2.73-0.6-4.09c-0.14-0.68-0.28-1.36-0.42-2.04c-0.22-1.05-0.43-2.11-0.65-3.16
		c-0.14-0.91-0.28-1.82-0.42-2.73c-0.06-0.51-0.12-1.03-0.17-1.54c-0.12-0.62-0.1-0.71-0.07-0.72c0.03-0.01,0.1,0.06,0.34,0.66
		c0.33,0.52,0.67,1.03,1,1.55c0.41,0.7,0.83,1.41,1.24,2.11c0.29,0.45,0.58,0.89,0.87,1.34c0.1,0.12,0.2,0.25,0.3,0.37
		c0.09,0.25,0.19,0.53,0.25,0.52c0.08-0.02,0.02-0.56-0.01-0.99c-0.04-0.57-0.04-1.38,0.08-2.38c-0.01-0.64-0.02-1.28-0.02-1.91
		c-0.02-0.18-0.03-0.38,0.02-0.4c0.11-0.04,0.39,0.55,0.45,0.67c0.32,0.65,1.45,2.47,4.47,6.95c0.75,1.13,1.51,2.25,2.26,3.38
		c0.14,0.16,1.78,2.09,1.11,4.39c-0.32,1.09-1.01,1.78-1.38,2.1c-0.2,0.17-0.4,0.35-0.6,0.52c-0.17,0.34-0.33,0.67-0.5,1.01
		c-0.1,0.4-0.19,0.89-0.22,1.45c-0.03,0.53,0,1,0.05,1.39c-0.07,0.31,0.02,0.63,0.24,0.82c0.16,0.14,0.35,0.17,0.43,0.18
		c0.22,0.13,0.43,0.26,0.65,0.4c0.62,0.29,0.91,0.69,1.02,0.89c0.57,0.94,0.23,2.02,0.09,2.47c-0.17,0.53-0.42,0.93-0.59,1.16
		c-0.17,0.47-0.33,0.94-0.5,1.42c-0.07,0.22-0.15,0.45-0.22,0.67c0,0.23,0,0.47,0,0.7c-0.46,1.34-0.56,2.43-0.56,3.17
		c-0.01,0.64,0,1.39,0.33,1.51c0.41,0.15,1.05-0.7,1.12-0.79c0.63-1.14,1.26-2.3,1.89-3.48c1.35-2.54,2.64-5.05,3.85-7.52
		c0.93-1.74,1.86-3.52,2.78-5.32c0.37-0.72,0.73-1.44,1.09-2.16c0.18-0.3,0.36-0.6,0.55-0.89c0.16-0.48,0.29-0.71,0.4-0.7
		c0.07,0.01,0.13,0.12,0.17,0.34c0.65,1.18,1.31,2.36,1.96,3.53c0.6,1.47,1.21,2.95,1.81,4.42c0.29,1.06,0.58,2.12,0.87,3.18
		c0.17,0.98,0.35,1.95,0.52,2.93c0.06,0.94,0.12,1.89,0.17,2.83c-0.12,1.12-0.23,2.24-0.35,3.35c-0.19,0.85-0.38,1.71-0.57,2.56
		c-0.33,1.02-0.66,2.04-0.99,3.06c-0.79,1.89-1.58,3.77-2.37,5.66c-0.29,0.84-0.59,1.68-0.88,2.51c-0.27,1.02-0.55,2.04-0.82,3.06
		c-0.21,1.14-0.38,2.42-0.47,3.83c-0.1,1.6-0.08,3.05,0.01,4.32c0.18,1.03,0.36,2.07,0.53,3.1c0.31,0.95,0.61,1.9,0.92,2.86
		c0.29,0.59,0.58,1.17,0.87,1.76c0.53,0.81,1.06,1.61,1.59,2.42c0.43,0.45,0.86,0.91,1.29,1.37c0.69,0.73,1.38,1.45,2.06,2.16
		c1.11,0.99,2.22,1.99,3.33,2.98c0.82,0.94,1.64,1.89,2.46,2.83c0.39,0.66,0.78,1.32,1.17,1.99c0.26,0.86,0.53,1.72,0.79,2.58
		c0.28,0.99,0.3,1.79,0.25,2.38c-0.06,0.63-0.21,1.22-0.12,1.24c0.07,0.02,0.28-0.43,0.47-0.87c0.22-0.41,0.45-0.83,0.67-1.24
		c0.17-0.6,0.33-1.19,0.5-1.79c0.07-0.38,0.12-0.8,0.15-1.24c0.09-1.56-0.19-2.89-0.5-3.87c-0.04-0.2-0.09-0.41-0.13-0.61
		c-0.45-0.99-0.91-1.98-1.36-2.97c-0.76-1.21-1.52-2.42-2.29-3.63c-0.56-1.14-1.13-2.29-1.69-3.43c-0.29-0.73-0.58-1.46-0.87-2.19
		c-0.33-1.42-0.66-2.83-0.99-4.25c-0.05-1.45-0.1-2.9-0.15-4.35c0.21-1.3,0.41-2.6,0.62-3.9c0.17-0.6,0.33-1.21,0.5-1.81
		c0.24-0.64,0.48-1.28,0.72-1.91c0.1-0.26,0.2-0.51,0.3-0.77c0.11-0.17,0.22-0.35,0.32-0.52c0.03-0.15,0.1-0.39,0.2-0.4
		c0.16-0.01,0.3,0.54,0.32,0.62c0.46,0.74,0.91,1.47,1.37,2.21c0.5,0.76,0.99,1.52,1.49,2.29c0.49,0.66,0.99,1.32,1.48,1.99
		c0.52,0.56,1.03,1.13,1.55,1.69c0.67,0.73,1.34,1.46,2.01,2.19c0.39,0.32,0.78,0.65,1.17,0.97c0.42,0.33,0.88,0.66,1.39,0.99
		c1.13,0.73,2.21,1.27,3.18,1.66c0.55,0.17,1.11,0.35,1.66,0.52c1.29,0.28,2.35,0.23,3.03,0.15c0.37-0.05,0.97-0.12,1.71-0.39
		c0.81-0.3,1.42-0.7,1.82-1c0.39-0.27,0.78-0.55,1.17-0.82c0.18-0.18,0.36-0.36,0.55-0.55c0.1-0.07,0.76-0.56,0.67-0.75
		c-0.07-0.14-0.52-0.05-0.72,0c-0.73-0.03-1.46-0.07-2.19-0.1c-1.32-0.08-3.69-0.4-6.11-1.91c-0.54-0.34-1.54-0.97-2.51-2.08
		c-2.09-2.41-2.43-5.27-2.49-6.61c-0.05-0.49-0.09-0.97-0.14-1.46c0.08-0.78,0.16-1.56,0.25-2.34c0.12-0.46,0.25-0.91,0.37-1.37
		c0.07-0.26,0.15-0.51,0.22-0.77c0.02-0.08,0.14-0.7,0.25-0.69c0.11,0.01,0.14,0.62,0.14,0.71c0.02,0.25,0.04,0.5,0.06,0.75
		c0.17,0.82,0.33,1.64,0.5,2.46c0.45-0.67,0.89-1.34,1.34-2.01c0.33-0.46,0.66-0.92,0.99-1.39c1.87-2.64,3.62-5.27,5.27-7.87
		c0.16-0.2,0.41-0.53,0.7-0.94c0.73-1.08,0.92-1.65,1.54-2.58c0.23-0.35,0.6-0.86,1.12-1.44c0.6-0.89,1.21-1.77,1.81-2.66
		c0.42-0.67,0.84-1.34,1.27-2.01c0.17-0.22,0.35-0.43,0.52-0.65c0.02-0.2,0.16-0.37,0.35-0.42c0.25-0.06,0.44,0.11,0.45,0.12
		c-1.09,3.67-2.18,7.34-3.28,11.01c0.27-0.19,0.66-0.49,1.06-0.9c0.44-0.45,0.72-0.84,0.89-1.09c0.93-1.34,1.76-2.57,2.11-3.1
		c0.55-1.2,1.17-2.9,1.52-4.99c0.34-2.1,0.28-3.91,0.14-5.22c-0.02-0.38-0.03-0.76-0.05-1.14c-0.05-0.36-0.1-0.71-0.15-1.07
		c-0.12-0.2-0.1-0.39-0.02-0.45c0.08-0.06,0.29,0.01,0.42,0.22c1.64,0.55,3.28,1.11,4.92,1.66c1.24,0.31,2.48,0.61,3.73,0.92
		c1.13,0.17,2.27,0.35,3.4,0.52c1,0,2,0,3.01,0c0.9-0.14,1.8-0.28,2.71-0.42c0.79-0.29,1.59-0.58,2.38-0.87
		c0.71-0.51,1.42-1.03,2.14-1.54c0.41-0.5,0.83-0.99,1.24-1.49c0.23-0.43,0.46-0.86,0.7-1.29c0.08-0.22,0.17-0.45,0.25-0.67
		c0.17-0.19,0.24-0.31,0.2-0.37c-0.05-0.09-0.31-0.06-0.77,0.1c-0.29,0.02-0.58,0.05-0.87,0.07c-0.84,0.05-1.67,0.1-2.51,0.15
		c-0.67,0-1.46-0.04-2.32-0.17c-1.06-0.16-1.98-0.42-2.73-0.68c-0.56-0.27-1.24-0.7-1.84-1.39c-1.97-2.28-1.3-5.38-1.19-5.84
		c0.5-2.54,1.02-5.09,1.56-7.65c0.1-0.48,0.2-0.95,0.3-1.42c0.87-3.04,1.73-6.09,2.6-9.13c0.52-1.71,1.04-3.43,1.56-5.14
		c0.3-1.11,0.6-2.22,0.9-3.33c0.8,0.22,1.67,0.41,2.6,0.57c2.4,0.4,4.56,0.43,6.36,0.31c1.08-0.17,2.15-0.34,3.23-0.51
		c0.87-0.27,1.74-0.55,2.61-0.82c0.96-0.37,1.92-0.74,2.88-1.11c0.5-0.26,1.01-0.52,1.51-0.78c1.05-0.6,2.1-1.19,3.15-1.79
		c0.72-0.44,1.45-0.87,2.17-1.31c0.8-0.55,1.6-1.1,2.4-1.65c0.89-0.63,1.79-1.26,2.68-1.89c-0.28-0.03-0.57-0.06-0.85-0.09
		c-0.36-0.02-0.71-0.04-1.07-0.06c-1.81-0.11-3.62-0.21-5.43-0.32c-1.43-0.09-2.86-0.18-4.3-0.27c-0.6-0.05-1.19-0.1-1.79-0.15
		c-0.57,0.05-0.86,0.04-0.87-0.02c-0.02-0.07,0.32-0.22,1.02-0.45c1.29-0.53,2.58-1.06,3.87-1.59c0.82-0.34,4.17-1.62,7.21-3.09
		c1.34-0.64,3.23-1.61,5.44-2.95c1.33-1.02,2.66-2.03,3.99-3.05c0.49-0.5,0.98-0.99,1.47-1.49c0.1-0.14,0.25-0.34,0.47-0.55
		c0.28-0.25,0.5-0.37,0.47-0.45c-0.03-0.08-0.29-0.06-0.52-0.05c-0.32,0.01-0.79,0-1.37-0.12c-0.73-0.01-1.46-0.02-2.19-0.02
		c-1.47,0.02-2.93,0.03-4.4,0.05c-1.1-0.11-2.2-0.22-3.3-0.32c-0.74-0.19-1.47-0.38-2.21-0.57c-0.65-0.18-1.86-0.61-2.98-1.66
		c-1.66-1.56-2.05-3.46-2.16-4.11c-0.16-0.61-0.37-1.58-0.48-2.8c-0.06-0.68-0.06-1.18-0.06-1.29c-0.02-1.42-0.76-8.84-3.09-10.43
		c-2.62-1.79-9.67,2.15-16.65,10.09c-1.18,2.47-2.35,4.93-3.53,7.4c-0.58,1.87-1.16,3.74-1.74,5.61c-0.31-1.08-0.63-2.15-0.94-3.23
		c-1.19-4.33-1.55-5.29-1.64-5.27c-0.11,0.03,0.23,2.16,0.9,6.43c0.16,1,0.13,2.03,0.39,3.01c0.21,0.78,0.5,1.45,0.16,1.84
		c-0.22,0.25-0.66,0.35-0.86,0.19c-0.16-0.13-0.06-0.38-0.1-0.84c-0.04-0.51-0.23-0.87-0.45-1.29c-0.36-0.69-0.59-0.72-0.79-1.29
		c-0.15-0.44-0.15-0.79-0.15-0.94c-0.02-1.13-0.71-4.46-1.99-6.91c-1.08-2.07-2.48-3.29-3.58-4.26c-0.71-0.63-3.12-2.64-6.89-3.84
		c-1.81-0.58-1.73-0.27-4.04-0.93c-1.87-0.53-3.11-1.08-6.56-2.65c-6.36-2.9-6.09-2.86-6.89-3.11c-3.76-1.2-6.81-1.21-7.75-1.19
		c-2.96,0.05-5.36,0.65-6.96,1.18c-0.61,0.52-1.61,1.27-2.98,1.87c-1,0.44-1.41,0.45-4.11,1.13c-3.19,0.8-3.08,0.89-4.44,1.13
		c-2.29,0.39-2.62,0.12-4.04,0.46c-1.14,0.28-2.75,0.9-4.55,2.48c-0.49,0.74-0.99,1.48-1.48,2.22c-1.46,5.85-2.91,11.7-4.37,17.55
		c-0.22-0.13-0.55-0.35-0.79-0.73c-1.24-1.9,1.1-5.46,0.99-5.5c-0.22-0.08-1.1,5.18-2.57,5.21c-0.83,0.02-1.83-1.66-1.85-3.16
		c-0.01-0.63,0.16-1.07,0.27-1.4c1-3.11-0.54-5.65-0.18-9.11c0.11-1,0.16-1.5,0.35-2.06c0.3-0.88,0.66-1.28,0.46-1.59
		c-0.21-0.33-0.96-0.38-1.39-0.07c-0.38,0.27-0.41,0.74-0.53,1.52c-0.13,0.83-0.38,1.63-0.53,2.45c-0.32,1.81-0.96,4.14-1.26,4.11
		c-0.18-0.02-0.13-0.92-0.25-2.39c-0.2-2.43-0.75-4.89-0.99-4.87c-0.24,0.02-0.17,2.33-0.59,6.94c-0.17,1.89-0.29,2.64-0.54,3.22
		c-0.03,0.07-0.13,0.42-0.21,0.41c-0.17-0.02,0.28-1.39-0.31-2.74c-0.29-0.66-0.68-0.99-0.6-1.59c0.05-0.35,0.24-0.62,0.4-0.79
		c-0.95,0.4-1.56,0.46-1.84,0.18c-0.53-0.52,0.12-2.23,1.95-5.13c-1.71,0.02-3.83-0.27-5.23-1.72c-2.58-2.69-0.12-6.7-2.45-9.01
		C240.18,470.04,234.02,470.99,232.29,473.85z"/>
	<path class="st5" d="M257.97,482.71c-0.11,0.2-0.36,0.73-0.16,2.49c0.04,0.39,0.14,0.89,0.32,1.9c0.49,2.6,0.48,1.81,0.6,2.71
		c0.05,0.39,0.07,0.73,0.22,0.76c0.18,0.04,0.41-0.46,0.76-1.08c0.43-0.77,0.28-0.34,1.52-2.27c0.2-0.31,0.66-1.04,1.25-2
		c0.94-1.57,0.8-1.44,1.3-2.22c0.77-1.2,1.4-1.95,1.25-2.11c-0.1-0.1-0.38,0.15-0.97,0.16c-0.42,0.01-0.72-0.11-0.87-0.16
		c-1-0.33-2.86-0.09-4.22,0.87C258.57,482,258.23,482.25,257.97,482.71z"/>
	<path class="st0" d="M275.28,486.6c-0.22-0.05-0.54,0.78-1.54,3.03c-0.61,1.38-1.29,2.74-1.89,4.12c-0.78,1.81-2.08,4.73-4.37,9.64
		c-0.3,0.76-0.6,1.52-0.89,2.29c-0.44,0.2-0.6,0.68-0.43,1.01c0.15,0.29,0.54,0.43,0.78,0.33c0.18-0.08,0.2-0.25,0.45-0.65
		c0.16-0.25,0.31-0.43,0.42-0.55c0.34-0.48,0.68-0.96,1.02-1.43c2.13-3.46,3.27-5.15,3.43-5.07c0.09,0.05-0.15,0.71-0.73,1.97
		c-0.4,1.48-0.8,2.96-1.2,4.44c-0.43,1.92-0.86,3.84-1.29,5.76c-0.22,1.28-0.43,2.55-0.65,3.83c-0.29,1.25-0.54,2.78-0.6,4.52
		c-0.03,1.09,0.01,2.08,0.1,2.97c0.17,1.44,0.33,2.89,0.5,4.33c0.43,1.13,0.86,2.25,1.29,3.38c1.78,3.22,2.39,3.91,2.58,3.83
		c0.55-0.24-3.15-6.3-2.43-13.81c0.49-5.12,2.92-9.73,3.23-9.64c0.16,0.05-0.1,1.4-0.37,2.62c0.06,0.9,0.11,1.8,0.17,2.7
		c0,1.37,0,2.75,0,4.12c0.02,1.06,0.03,2.12,0.05,3.18c0,0.53,0,1.06,0,1.59c0.27,1.87,0.52,2.28,0.7,2.29
		c0.32,0.01,0.59-1.29,0.65-1.54c0.2-0.96,0.17-1.78,0.1-2.33c-0.02-0.45-0.03-0.9-0.05-1.34c0.08-0.45,0.16-0.89,0.25-1.34
		c0.42-2.09,0.88-4.22,1.39-6.41c0.32-1.37,0.65-2.71,0.99-4.02c0.26-1.03,0.53-2.05,0.79-3.08c0.17-0.58,0.33-1.16,0.5-1.74
		c0.07-0.26,0.13-0.53,0.2-0.79c-0.16-0.22-0.18-0.5-0.07-0.71c0.16-0.28,0.6-0.4,0.96-0.19c0.71-0.29,0.95-0.25,1.04-0.15
		c0.13,0.15-0.06,0.44-0.2,0.94c-0.15,0.55-0.17,1.04-0.15,1.39c-0.03,0.32-0.09,0.78-0.2,1.34c-0.09,0.49-0.18,0.84-0.2,0.89
		c-0.09,0.36-1.04,4.47-0.99,10.33c0.02,2.98,0.08,6.96,1.44,11.82c0.98,3.51,2.57,7.18,3.03,7.05c0.77-0.22-1.83-10.79-1.29-10.93
		c0.34-0.09,1.84,4.13,4.87,14.14c1.31,3.57,2.62,7.13,3.92,10.7c0.37,1.32,0.83,2.75,1.42,4.24c0.39,1,0.8,1.94,1.22,2.81
		c0.69,2.49,1.14,3.72,1.34,3.68c0.09-0.02,0.13-0.3,0.12-0.84c0.19-0.98,0.38-1.95,0.57-2.93c0.13-0.65,0.26-1.29,0.4-1.94
		c0.07-0.3,0.13-0.6,0.2-0.89c-0.24-0.26-0.22-0.65,0-0.84c0.24-0.22,0.68-0.18,0.89,0.15c0.45-0.21,0.95-0.2,1.24,0.05
		c0.43,0.37,0.46,1.28-0.22,1.9c-0.15,1.2-0.29,2.4-0.43,3.61c-0.3,2.69-0.57,5.34-0.79,7.95c-0.85,4.02-0.86,4.92-0.7,4.97
		c0.52,0.15,2.99-8.69,4.77-15.05c0.5-1.77,1.28-4.68,0.79-8.36c-0.12-0.93-0.3-1.68-0.42-2.17c-0.19-1.39-0.38-2.79-0.57-4.18
		c-0.16-0.31-1.13-2.16-0.6-2.63c0.23-0.21,0.76-0.16,1.04,0.1c0.32,0.3,0.26,0.84,0.25,0.99c-0.13,1.46,0.61,2.87,0.84,4.32
		c0.45,2.74,0.87,4.95,1.29,7.15c0.21,1.08,0.38,1.96,0.5,2.53c0.23,2.01,0.55,4.28,0.84,4.27c0.2-0.01,0.32-1.03,0.4-1.84
		c0.57-5.59,0.5-10.74,0.5-11.03c-0.04-2.19-0.1-4.42,0.1-6.36c0.02-0.24,0.25-2.33,0.25-2.33c0,0,0.42-0.16,0.55-0.15
		c0.52,0.05,0.63,3.55,0.7,4.87c0,0.08,0-0.08,0.89,6.46c0.58,4.23,0.79,5.77,0.89,5.76c0.07-0.01,0.05-0.66,0.05-1.99
		c0-1.59,0.04-3.18,0.05-4.77c0.04-4.32,0.29-5.92,0.25-8.64c-0.03-2.12-0.05-3.18-0.1-3.33c-0.07-0.18-0.28-0.71-0.05-0.99
		c0.1-0.12,0.31-0.21,0.45-0.15c0.26,0.12,0.17,0.7,0.2,1.74c0.01,0.48,0.08,0.96,0.1,1.44c0.07,1.4,0.62,8.09,1.24,8.1
		c0.37,0,0.66-2.37,0.79-3.43c0.48-3.88,0.31-6.73,0.25-8.4c-0.23-6.61,0.73-12.48,0.99-12.47c0.07,0,0.11,0.38,0.2,1.59
		c0.44,5.69,0.36,7.48,0.6,7.5c0.32,0.03,1.35-3.38,1.34-7.35c0-3.59-0.85-6.53-1.59-8.49c-2.22-4.5-4.44-9-6.65-13.51
		c-0.08,0.49-0.19,1.21-0.35,2.08c-0.64,3.54-1.75,8.36-2.14,8.3c-0.13-0.02-0.14-0.6-0.15-0.84c-0.1-4.44-0.97-14.54-1.39-14.56
		c-0.24-0.01-0.62,3.29-1.69,9.29c-0.6,3.34-0.89,4.62-1.59,4.75c-1.64,0.32-3.77-5.95-4.77-5.65c-0.41,0.12-0.59,1.36-0.1,5.07
		c-0.59,3.2-1.34,6.55-1.89,6.51c-0.29-0.02-0.43-0.96-0.5-1.49c-0.64-4.73-0.96-14.77-1.04-17.74c0.03-0.16,0.08-0.5-0.1-0.79
		c-0.42-0.67-1.75-0.61-2.09-0.1c-0.12,0.18-0.07,0.34-0.05,0.75c0.03,0.67-0.06,1.22-0.15,1.59c-0.03,1.16-0.07,2.32-0.1,3.48
		c-0.22,3.38-0.43,6.76-0.65,10.13c0.3,0.97,0.21,1.82-0.25,2.14c-0.25,0.17-0.68,0.23-0.84,0.05c-0.13-0.14-0.05-0.36,0-0.79
		c0.05-0.44,0.03-0.82,0-1.09c-0.15-1.11-0.3-2.22-0.45-3.33c-0.33-2.63-0.66-5.27-0.99-7.9c-0.23-0.96-0.47-2.34-0.45-4.02
		c0.02-0.98,0.12-1.52-0.08-1.6c-0.73-0.3-4.02,6.54-4.64,6.27c-0.47-0.2,1.51-3.94,0.35-8.35c-0.24-0.91-0.56-1.63-0.81-2.13
		c-0.51-0.55-1.02-1.1-1.53-1.65c-0.53-0.99-0.88-1.06-1.04-1.04c-0.73,0.09-0.99,2.42-1.04,2.98c0.26,1.01-0.04,1.94-0.7,2.33
		c-0.07,0.04-0.61,0.36-0.94,0.15c-0.19-0.12-0.62-0.63,0.35-3.48C275.64,487.6,275.5,486.65,275.28,486.6z"/>
	<path class="st0" d="M314.35,503.62c-0.26,0.19,0.14,0.95,0.51,2.31c0.14,0.5,0.28,1.32,0.58,2.96c0.22,1.24,0.16,1.31,0.32,1.91
		c0.32,1.19,0.65,2.38,0.97,3.57c0.42,0.53,0.99,1.29,1.62,2.24c0.92,1.38,4.03,6.17,4.98,12.13c0.77,4.83-0.11,8.94-1.08,13.43
		c-0.72,3.36-1.55,5.58-1.2,9.21c0.3,3.09,1.35,6.14,1.85,6.07c0.35-0.05,0.62-1.68,0.25-8.52c0.32-2.46,0.65-4.91,0.97-7.37
		c0.19-1.36,0.42-3.43,0.47-5.96c0.11-5.72-0.81-9.23-0.32-9.35c0.42-0.1,1.62,2.36,1.99,4.98c0.04,0.32,0.17,1.29-0.04,4.26
		c-0.14,2.05-0.34,3.72-0.51,4.87c0.08,12.37,0.53,15.29,0.97,15.31c0.9,0.05,3.01-11.56,1.62-19.14c-1.47-8.04-1.48-8.09-1.48-8.09
		c-0.34-1.36-0.41-2.78-0.72-4.15c-0.27-1.17-0.48-1.88-0.11-2.25c0.66-0.66,2.33,0.57,2.96,0.01c0.42-0.36,0.36-1.47-1.03-4.27
		c-0.23-1.05-0.47-2.09-0.7-3.14c-0.65-3.62-0.68-4.65-0.51-4.69c0.15-0.04,0.43,0.61,0.72,1.26c0.67,1.52,1.05,2.89,1.27,3.95
		c0.33,0.84,0.81,2.02,1.44,3.41c0.92,2.05,1.64,3.63,1.99,3.54c0.27-0.07,0.21-1.09,0.18-1.52c-0.34-5.43-1.34-12.33-0.94-12.46
		c0.19-0.06,0.89,1.29,3.01,6.88c0.03-0.65,0.06-1.57,0.1-2.66c0.38-11.2,0.13-14.45-1.6-17.65c-0.23-0.43-0.58-1.02-1.06-1.69
		c-2-1.23-3.99-2.46-5.99-3.69c-0.04,0.37-0.12,0.92-0.23,1.58c-0.39,2.22-0.87,4.96-2.49,7.47c-0.63,0.98-1.81,2.49-3.9,3.86
		c-0.91,0.37-1.83,0.75-2.74,1.12c-0.52,0.11-1.03,0.22-1.55,0.32C314.74,503.62,314.49,503.52,314.35,503.62z"/>
	<path class="st0" d="M343.09,410.95c-0.23-2.7-7.35-4.08-9.29-4.46c-2.38-0.46-5.44-1.02-9.07,0c-2.95,0.83-5.37,2.45-6.35,3.1
		c-1.02,0.68-1.85,1.34-2.34,1.74c-1.78,1.42-3.14,2.76-4.07,3.75c-0.23,0.15-0.61,0.39-1.06,0.67c-3.84,2.38-6.19,3.84-8.95,4.65
		c-3.27,0.95-3.67-0.02-5.02,0.91c-2.07,1.42-2.1,4.37-2.19,10.12c-0.26,16.02-0.46,17.06,0,21.01c0.33,2.77,0.66,4.26,0.91,7.86
		c0.34,4.97,0.25,4.45,0.59,5.82c0.47,1.9,1.14,4.58,3.16,6.15c1.35,1.05,2.45,0.94,6.96,1.18c8.41,0.44,9.06,1.05,14.21,0.79
		c3.05-0.16,5.11-0.49,5.76-0.6c2.33-0.39,4.02-0.87,6.56-1.59c2.68-0.76,2.69-0.87,7.15-2.19c1.42-0.42,2.34-0.68,4.17-1.19
		c2.78-0.78,4.18-1.17,4.57-1.19c3.61-0.18,5.96,2.26,6.56,1.59c0.41-0.45-0.37-1.92-1.19-2.98c-2.12-2.72-6.23-4.8-10.53-4.37
		c-4.83,0.48-5.56,3.7-11.13,5.56c-4.01,1.34-7.75,1.06-10.33,0.6c-2.58-0.63-4.87-0.89-6.76-0.99c-3.44-0.18-4.55,0.25-6.36-0.6
		c-2.68-1.26-3.99-3.98-4.37-4.77c-0.82-1.69-0.9-3.01-2.6-6.96c-0.11-0.26-0.21-0.48-0.27-0.61c-0.05-2.04,0.14-5.16,1.55-8.53
		c1.19-2.83,2.8-4.62,5.97-8.08c4.61-5.04,8.79-8.25,10.28-9.37c1.46-1.09,3.69-2.54,8.16-5.44c1.22-0.79,4.9-3.17,9.07-6.04
		C342.56,412.51,343.16,411.79,343.09,410.95z"/>
	<path class="st0" d="M7.81,248.66"/>
</g>
<path class="st6" d="M-59.47,312"/>
</svg>
